<svg width="32" height="32" viewBox="0 0 32 32" fill="none" xmlns="http://www.w3.org/2000/svg">
<rect width="32" height="32" rx="4" fill="#EDEEF4"/>
<path d="M20 16.9V21.1C20 24.6 18.6 26 15.1 26H10.9C7.4 26 6 24.6 6 21.1V16.9C6 13.4 7.4 12 10.9 12H15.1C18.6 12 20 13.4 20 16.9Z" fill="#64748B"/>
<path opacity="0.4" d="M21.0998 6H16.8998C13.4498 6 12.0498 7.37 12.0098 10.75H15.0998C19.2998 10.75 21.2498 12.7 21.2498 16.9V19.99C24.6298 19.95 25.9998 18.55 25.9998 15.1V10.9C25.9998 7.4 24.5998 6 21.0998 6Z" fill="#64748B"/>
</svg>
