<svg width="24" height="24" viewBox="0 0 24 24" fill="none" xmlns="http://www.w3.org/2000/svg">
<g opacity="0.4">
<path d="M19.9999 22V15C19.9999 13.8954 19.1044 13 17.9999 13H9.49976L11.4998 19H14.4998C15.3282 19 15.9998 19.6716 15.9998 20.5C15.9998 21.3284 15.3282 22 14.4998 22H19.9999Z" fill="#64748B"/>
<path d="M3.99976 20V15C3.99976 13.8954 4.89519 13 5.99976 13H6.99976V22H5.99976C4.89519 22 3.99976 21.1045 3.99976 20Z" fill="#64748B"/>
</g>
<path d="M19.25 22V15C19.25 14.3096 18.6903 13.75 18 13.75H6C5.30964 13.75 4.75 14.3096 4.75 15V20C4.75 20.6903 5.30966 21.25 6 21.25H7C7.41421 21.25 7.75 21.5858 7.75 22C7.75 22.4142 7.41421 22.75 7 22.75H6C4.4812 22.75 3.25 21.5187 3.25 20V15C3.25 13.4812 4.48122 12.25 6 12.25H18C19.5187 12.25 20.75 13.4812 20.75 15V22C20.75 22.4142 20.4142 22.75 20 22.75C19.5858 22.7499 19.25 22.4142 19.25 22Z" fill="#64748B"/>
<path d="M6.25 21.9998V13.4998C6.25 13.0856 6.58579 12.7498 7 12.7498C7.41421 12.7498 7.75 13.0856 7.75 13.4998V21.9998C7.75 22.4141 7.41421 22.7498 7 22.7498C6.58579 22.7498 6.25 22.4141 6.25 21.9998ZM9.2627 12.2879C9.65565 12.1569 10.0809 12.3696 10.2119 12.7625L13.2119 21.7625C13.3429 22.1555 13.1303 22.5808 12.7373 22.7118C12.3443 22.8427 11.9191 22.6301 11.7881 22.2371L8.78809 13.2371C8.6571 12.8442 8.86974 12.4189 9.2627 12.2879Z" fill="#64748B"/>
<path d="M15.25 20.5C15.25 20.0858 14.9142 19.75 14.5 19.75H12C11.5858 19.75 11.25 19.4142 11.25 19C11.25 18.5858 11.5858 18.25 12 18.25H14.5C15.7426 18.25 16.75 19.2574 16.75 20.5C16.75 21.7426 15.7426 22.75 14.5 22.75H12.5C12.0858 22.75 11.75 22.4142 11.75 22C11.75 21.5858 12.0858 21.25 12.5 21.25H14.5C14.9142 21.25 15.25 20.9142 15.25 20.5Z" fill="#64748B"/>
<path d="M14.75 5.5C14.75 3.98121 13.5188 2.75 12 2.75C10.4812 2.75001 9.25 3.98123 9.25 5.5V6.5C9.25 8.01877 10.4812 9.24999 12 9.25C13.5188 9.25 14.75 8.01879 14.75 6.5V5.5ZM16.25 6.5C16.25 8.84721 14.3472 10.75 12 10.75C9.6528 10.75 7.75 8.84721 7.75 6.5V5.5C7.75 3.15279 9.6528 1.25001 12 1.25C14.3472 1.25 16.25 3.15279 16.25 5.5V6.5Z" fill="#64748B"/>
</svg>
