<svg width="20" height="20" viewBox="0 0 20 20" fill="none" xmlns="http://www.w3.org/2000/svg">
<path d="M6.0415 6.66669C6.0415 6.50093 6.10735 6.34196 6.22456 6.22475C6.34177 6.10753 6.50074 6.04169 6.6665 6.04169H9.99984C10.1656 6.04169 10.3246 6.10753 10.4418 6.22475C10.559 6.34196 10.6248 6.50093 10.6248 6.66669C10.6248 6.83245 10.559 6.99142 10.4418 7.10863C10.3246 7.22584 10.1656 7.29169 9.99984 7.29169H6.6665C6.50074 7.29169 6.34177 7.22584 6.22456 7.10863C6.10735 6.99142 6.0415 6.83245 6.0415 6.66669ZM6.0415 10C6.0415 9.83426 6.10735 9.67529 6.22456 9.55808C6.34177 9.44087 6.50074 9.37502 6.6665 9.37502H13.3332C13.4989 9.37502 13.6579 9.44087 13.7751 9.55808C13.8923 9.67529 13.9582 9.83426 13.9582 10C13.9582 10.1658 13.8923 10.3248 13.7751 10.442C13.6579 10.5592 13.4989 10.625 13.3332 10.625H6.6665C6.50074 10.625 6.34177 10.5592 6.22456 10.442C6.10735 10.3248 6.0415 10.1658 6.0415 10Z" fill="#94A3B8"/>
<path fill-rule="evenodd" clip-rule="evenodd" d="M8.30484 1.04169H11.6948C12.8373 1.04169 13.734 1.04169 14.454 1.10002C15.1873 1.16085 15.7932 1.28419 16.3415 1.56419C17.2432 2.02359 17.9763 2.75667 18.4357 3.65835C18.7157 4.20669 18.839 4.81252 18.899 5.54585C18.9582 6.26585 18.9582 7.16252 18.9582 8.30502V9.44252C18.9582 10.7334 18.9582 11.52 18.7648 12.1817C18.5389 12.9524 18.1228 13.6539 17.5549 14.2218C16.987 14.7897 16.2855 15.2057 15.5148 15.4317C14.8532 15.625 14.0665 15.625 12.7757 15.625H12.1457C11.4232 15.6298 10.7195 15.8555 10.129 16.2717L10.0873 16.3009L7.91234 17.855C6.65817 18.75 5.00984 17.4567 5.58317 16.0267C5.60107 15.9822 5.60775 15.934 5.60264 15.8863C5.59753 15.8387 5.58078 15.793 5.55386 15.7533C5.52694 15.7136 5.49068 15.6812 5.44828 15.6588C5.40587 15.6364 5.35862 15.6248 5.31067 15.625H4.80984C3.81041 15.625 2.85192 15.228 2.14522 14.5213C1.43852 13.8146 1.0415 12.8561 1.0415 11.8567V8.30502C1.0415 7.16252 1.0415 6.26585 1.09984 5.54585C1.16067 4.81252 1.284 4.20669 1.564 3.65835C2.02341 2.75667 2.75649 2.02359 3.65817 1.56419C4.2065 1.28419 4.81234 1.16085 5.54567 1.10085C6.26567 1.04169 7.16234 1.04169 8.30484 1.04169ZM5.64734 2.34669C4.9915 2.40002 4.56817 2.50335 4.22567 2.67752C3.55897 3.01712 3.01694 3.55915 2.67734 4.22585C2.50234 4.56835 2.39984 4.99169 2.3465 5.64752C2.29234 6.31085 2.2915 7.15585 2.2915 8.33335V11.8567C2.2915 12.5246 2.55683 13.1651 3.02911 13.6374C3.26296 13.8713 3.54057 14.0568 3.84611 14.1833C4.15165 14.3099 4.47913 14.375 4.80984 14.375H5.31067C5.5629 14.3748 5.81134 14.4364 6.03421 14.5545C6.25709 14.6726 6.44761 14.8436 6.58907 15.0524C6.73054 15.2612 6.81863 15.5016 6.84564 15.7523C6.87265 16.0031 6.83776 16.2567 6.744 16.4909C6.63484 16.7625 6.94734 17.0075 7.18567 16.8375L9.40817 15.25C10.2076 14.6866 11.1602 14.3813 12.1382 14.375H12.6532C14.1048 14.375 14.6965 14.3684 15.1632 14.2317C15.7327 14.0646 16.251 13.7572 16.6707 13.3375C17.0903 12.9179 17.3978 12.3995 17.5648 11.83C17.7015 11.3634 17.7082 10.7717 17.7082 9.32002V8.33335C17.7082 7.15585 17.7082 6.31085 17.6532 5.64752C17.5998 4.99169 17.4965 4.56835 17.3223 4.22585C16.983 3.55928 16.4412 3.01727 15.7748 2.67752C15.4315 2.50252 15.0082 2.40002 14.3523 2.34669C13.689 2.29252 12.844 2.29169 11.6665 2.29169H8.33317C7.15567 2.29169 6.31067 2.29169 5.64734 2.34669Z" fill="#94A3B8"/>
</svg>
